<svg width="233" height="365" viewBox="0 0 233 365" fill="none" xmlns="http://www.w3.org/2000/svg"><g clip-path="url(#clip0)"><path d="M223.206 207.439l.773-5.382h-.859c-1.203 4.443-4.038 3.759-8.592 3.845v-7.945h4.038c.602.085 1.289.171 1.719.598.429.512.601 1.11.687 1.794h.687v-6.407h-.687c0 .512-.086 1.281-.258 1.708-.343.684-1.288 1.111-2.233 1.111h-3.953v-8.628s3.351-.171 4.898.171c1.632.342 2.835 2.05 3.264 3.844h1.031l-.601-5.296c-4.468.085-11.255.256-16.152 0v.854c1.203 0 2.492.085 2.492 1.11v16.915c0 1.025-1.375 1.11-2.492 1.11v.769c4.983-.427 12.2-.342 16.238-.171zM164.87 207.439l.773-5.382h-.859c-1.203 4.443-4.038 3.759-8.592 3.845v-7.945h4.038c.602.085 1.289.171 1.719.598.343.512.601 1.11.601 1.794h.687v-6.407h-.687c0 .512-.086 1.281-.344 1.708-.343.684-1.203 1.111-2.234 1.111h-3.952v-8.628s3.351-.171 4.898.171c1.632.342 2.835 2.05 3.264 3.844h1.031l-.601-5.296c-4.468.085-11.255.256-16.152 0v.854c1.203 0 2.491.085 2.491 1.11v16.915c0 1.025-1.374 1.11-2.491 1.11v.769c5.155-.427 12.458-.342 16.41-.171zM54.727 207.44l.688-4.442h-.688c-.945 3.673-3.35 3.075-7.13 3.161v-6.578h3.35c.516.085 1.031.171 1.46.512.344.428.516.94.516 1.453h.602v-5.297h-.602c0 .427-.086 1.025-.258 1.367-.257.598-1.03.854-1.89.94h-3.264v-7.261s2.749-.086 4.037.085c1.375.256 2.32 1.709 2.664 3.161h.859l-.515-4.442c-3.695.085-9.365.17-13.403 0v.683c.945 0 2.148.085 2.148.94v14.095c0 .854-1.117.94-2.148.94v.598c4.21-.171 10.224-.086 13.574.085zM126.552 186.596c3.265.256 6.959.256 10.224.085v.854c-1.718 0-2.234.855-1.89 1.794l4.296 10.508 3.952-10.935c.257-.683-.086-1.452-1.89-1.452l-.172-.854c1.89.171 4.897.171 6.701 0v.854c-1.375 0-2.749.427-3.179 1.708l-6.701 18.196h-.945l-7.904-18.537c-.602-1.111-1.461-1.452-2.578-1.367v-.854h.086zM195.971 205.475c0 1.025-1.375 1.111-2.492 1.111v.769c1.719-.086 3.351-.171 4.984-.171 1.718 0 3.436 0 5.154.085v-.769c-1.202 0-2.491-.085-2.577-1.11v-16.914c0-1.026 1.375-1.111 2.577-1.111v-.854c-1.718.085-3.436.171-5.154.171-1.633 0-3.265 0-4.984-.171v.854c1.117 0 2.492.085 2.492 1.111v16.999zM14.777 190.269c.258-.171.516-.342.86-.171l.515 3.93c-1.031.085-.773-.855-1.031-1.367-.86-1.709-3.265-1.452-4.811-1.196v14.351c0 .855 1.117.94 2.148.94v.598c-1.46-.085-2.836-.085-4.296-.085-1.46 0-2.835.085-4.296.085v-.598c.945 0 2.148-.085 2.148-.94v-14.351c-1.546-.171-4.038-.427-4.811 1.196-.258.427 0 1.452-1.031 1.367l.515-3.93c.344-.171.516 0 .86.171h13.23zM24.657 198.897v6.92c0 .854 1.117.939 2.062.939v.684c-1.46-.086-2.835-.086-4.295-.086-1.375 0-2.75 0-4.21.086v-.598c.945 0 2.062-.086 2.062-.94v-14.095c0-.855-1.117-.94-2.062-.94v-.683c1.46.085 2.75.085 4.21.085 1.374 0 2.835 0 4.295-.085v.683c-.945 0-2.062.085-2.062.94v5.894h8.076v-5.809c0-.854-1.116-.94-2.061-.94v-.683c1.46.085 2.749.085 4.21.085 1.374 0 2.834 0 4.295-.085v.683c-.945 0-2.062.086-2.062.94v14.095c0 .855 1.117.94 2.062.94v.598c-1.46-.085-2.921-.085-4.296-.085-1.374 0-2.749.085-4.21.085v-.598c.945 0 2.062-.085 2.062-.94v-6.919h-8.075v-.171zM128.185 207.44c-3.952-.171-11.513-.171-16.066 0v-.769c1.117 0 2.491-.085 2.491-1.11v-16.915c0-1.025-1.374-1.11-2.491-1.11v-.854c1.718.085 3.35.17 4.983.17 1.718 0 3.436 0 5.155-.17v.854c-1.117 0-2.492.085-2.578 1.11v15.89c.43 1.537 2.062 1.708 3.866 1.708 1.976 0 3.695-1.367 4.382-3.075l.515-1.538.945.086-1.202 5.723zM174.836 207.44l-.172-.854c-1.203 0-2.491-.086-2.577-1.111l.085-14.949 14.95 16.829h1.632v-18.879c.086-1.026 1.375-1.111 2.577-1.111v-.769c-1.46.086-4.983.171-6.701 0l.086.769c1.117 0 2.492.085 2.492 1.111v10.336l-11.255-12.301h-7.818v.854c1.374 0 1.976.171 2.491 1.281v16.744c0 1.025-1.289 1.11-2.491 1.11v.855c1.976-.086 4.639-.086 6.701.085zM94.592 199.068h5.756l-3.007-7.005-2.75 7.005zm-7.045 7.517c1.718-.17 2.577-.768 3.093-1.964l7.13-18.025h3.18l7.818 18.452c.515 1.196 1.288 1.452 2.577 1.623v.769c-3.436-.257-7.818-.171-10.739 0v-.769c1.46 0 2.32-.854 1.976-1.794l-1.976-4.528h-6.53l-1.718 4.442c-.258.94.258 1.794 2.148 1.88l.172.769c-2.234-.257-5.241-.171-7.045 0v-.855h-.086zM72.426 193.943h3.093c1.546 0 3.007-1.111 3.608-2.734.602-2.563-.171-5.04-1.804-6.236-1.289-1.025-3.608-1.196-4.897-.513v9.483zm0 9.995c.086.598.43 1.11.945 1.537.86.598 1.976.769 3.179.684 2.148-.257 3.437-1.623 4.21-3.503.687-2.05.343-4.186-1.289-5.809-1.804-1.708-4.296-1.367-7.045-1.367v8.458zm12.715-17.94c.86 1.709.774 4.186-.515 5.724-1.375 1.794-2.835 2.306-3.78 2.477-.258.085-.344.342 0 .342 1.288.256 2.835.769 4.123 1.879 1.547 1.196 2.234 2.905 2.234 4.869-.086 1.965-1.203 3.759-2.92 4.784-1.72.94-3.437 1.367-5.413 1.367-2.75-.085-7.045-.171-8.936-.171-1.89 0-3.694 0-5.67.086v-.94c1.289 0 2.835-.171 2.835-1.367v-20.075c0-1.196-1.546-1.367-2.835-1.367v-1.025c1.976.085 3.78.171 5.67.171 1.89 0 6.186-.086 8.076-.171 3.609 0 5.757 1.281 7.131 3.417zM230.68 188.39c-.086 0-.258.085-.515.085h-.43v-1.11h.43c.257 0 .515 0 .601.085.172.085.172.171.172.427.086.256-.086.427-.258.513zm.773 1.367v-.513c0-.171-.085-.256-.171-.427-.086-.171-.258-.256-.516-.256a.661.661 0 00.43-.171c.172-.086.257-.342.257-.598 0-.342-.171-.598-.429-.769-.086-.085-.258-.085-.516-.085H229.134v2.989h.515v-1.196h.43c.258 0 .515.086.601.086.172.085.258.342.258.683v.342h.515v-.085z" fill="#BD854E"/><path d="M231.969 190.184a2.355 2.355 0 01-1.632.683c-.688 0-1.203-.256-1.633-.683a2.329 2.329 0 01-.687-1.623c0-.684.258-1.196.687-1.623a2.356 2.356 0 011.633-.684c.601 0 1.202.257 1.632.684.43.427.687 1.025.687 1.623-.086.598-.257 1.11-.687 1.623zm.258-3.588a2.677 2.677 0 00-1.547-.769h-.343c-.774 0-1.375.256-1.89.769a2.642 2.642 0 00-.774 1.879c0 .769.258 1.367.774 1.88.515.512 1.116.769 1.89.769.773 0 1.374-.257 1.89-.769a2.645 2.645 0 00.773-1.88c0-.683-.258-1.366-.773-1.879z" fill="#BD854E"/><path d="M174.75 319.433c0-1.708.086-3.844.172-6.236-30.758 3.161-86.087 3.161-116.93 0 .086 2.392.086 4.528.172 6.236 15.636 1.538 36.943 2.307 58.25 2.307 21.393 0 42.785-.769 58.336-2.307zM67.872 138.074c-1.718 1.708-3.264 3.587-4.725 5.723 14.605-.427 34.795-.854 54.126-.854 20.104 0 39.778.512 52.923.939a46.432 46.432 0 00-4.725-5.808c-12.973-.342-30.414-.769-48.198-.769-17.355.085-35.31.427-49.4.769zM60.656 147.984c-.773 1.537-1.547 3.075-2.062 4.613 16.495-.342 42.098-.769 59.281-.769 17.44 0 42.27.512 56.875.854a54.222 54.222 0 00-2.062-4.613c-14.777-.342-38.146-.769-54.813-.769-16.496-.085-40.638.342-57.22.684zM57.82 303.287c.086 2.05.086 3.93.086 5.809 15.379 1.367 36.943 2.05 58.508 2.05 21.65 0 43.215-.683 58.594-2.05 0-1.794.086-3.759.086-5.809-30.156 2.734-87.118 2.734-117.274 0zM57.305 283.383c0 1.623.086 3.161.086 4.784 14.777 1.025 36.857 1.537 58.937 1.537 22.166 0 44.246-.512 59.11-1.537 0-1.623.085-3.247.085-4.784-28.953 2.05-89.093 2.05-118.218 0zM56.961 157.636a234.074 234.074 0 00-.773 3.503c18.128-.257 49.659-.598 62.202-.598 12.544 0 42.614.427 58.594.598a23.062 23.062 0 00-.774-3.503c-16.151-.256-45.534-.598-57.82-.598-12.372 0-43.215.427-61.429.598zM57.563 293.293c0 1.794.086 3.588.086 5.296 15.035 1.196 36.857 1.794 58.765 1.794 21.909 0 43.731-.598 58.852-1.794 0-1.708.086-3.502.086-5.296-29.555 2.392-88.148 2.392-117.789 0zM57.133 273.388c0 1.367.086 2.819.086 4.271 14.52.855 36.857 1.282 59.195 1.282s44.762-.427 59.281-1.367c0-1.452.086-2.904.086-4.271-28.523 1.794-90.038 1.794-118.648.085zM161.863 134.998c-2.835-2.221-5.756-3.929-8.248-5.211-1.374-.683-2.491-1.281-3.608-1.793-9.451-.257-20.62-.428-33.421-.428-12.286 0-23.54.171-33.335.342-1.03.598-2.234 1.111-3.694 1.879-2.492 1.282-5.24 2.905-8.076 5.126 12.114-.342 27.407-.598 45.105-.598 18.643-.085 33.936.256 45.277.683zM55.5 167.204c-.085.769-.085 1.623-.17 2.392 19.588-.085 57.046-.342 63.662-.342 6.443 0 41.325.171 58.851.342 0-.854-.086-1.623-.172-2.392-17.612-.085-52.236-.342-58.765-.342-6.444.086-43.817.257-63.405.342zM116.414 343.181c21.479 0 42.957-1.025 59.539-2.99-.172-.683-.43-1.452-.601-2.221a28.688 28.688 0 01-.688-4.954c-32.046 3.844-84.282 3.844-116.328 0-.086 1.708-.258 3.417-.687 4.869-.172.769-.344 1.538-.602 2.221 16.496 2.05 37.889 3.075 59.367 3.075zM93.99 7.457v2.307c4.64-.598 12.801-1.367 22.939-1.367 9.709 0 17.441.684 22.166 1.196V7.457c0-4.015-.172-4.783-3.35-5.808-2.75-.855-10.911-1.282-16.668-1.453H112.72c-5.585.171-12.802.598-15.38 1.367-3.178 1.11-3.35 1.88-3.35 5.894z" fill="#E6DBC0"/><path d="M116.414 353.86c22.166 0 44.332-1.196 61.601-3.674 0-.427-.086-.854-.086-1.281-.172-2.306-.687-4.271-1.289-6.236-33.506 4.613-86.687 4.613-120.194 0a86.326 86.326 0 00-1.375 6.236c-.086.427-.172.94-.172 1.281 17.27 2.478 39.35 3.674 61.515 3.674zM55.243 178.138h122.772v-1.367H55.157c.086.428.086.94.086 1.367zM176.812 225.379V223.5c-26.805.256-93.905.256-120.796 0v1.879c13.575.171 36.943.171 60.312.171 23.541.086 46.909 0 60.484-.171zM55.844 214.957h121.14v-1.367H55.844v1.367zM56.876 263.479c0 1.196.085 2.392.085 3.759 14.348.684 36.858 1.111 59.453 1.111 22.596 0 45.191-.342 59.539-1.111 0-1.281.086-2.563.086-3.759-28.18 1.538-90.898 1.538-119.163 0zM88.921 78.02c-.515 1.452-1.116 3.16-1.546 5.21 8.935-.768 18.901-1.195 28.953-1.28h.602c10.653 0 20.447.426 28.781 1.11-.43-1.965-1.031-3.674-1.547-5.126-.343-.94-.687-1.708-.859-2.392a369.47 369.47 0 00-26.375-.94h-.516c-9.193 0-18.214.342-26.547 1.026-.258.769-.602 1.537-.946 2.392zM116.5 71.442h.43c8.935 0 17.526.342 25.087.94-.945-2.05-2.062-4.614-3.093-7.689a364.323 364.323 0 00-21.994-.683h-.43c-7.56 0-15.121.256-22.252.769-1.03 2.99-2.234 5.638-3.093 7.688 7.904-.598 16.582-1.025 25.345-1.025zM116.586 60.934h.344c7.56 0 14.691.256 21.049.683a42.322 42.322 0 01-1.203-7.688c-6.1-.342-12.887-.598-19.846-.598h-.43c-7.217 0-14.004.256-20.19.683a42.356 42.356 0 01-1.203 7.689c6.53-.427 13.747-.684 21.479-.769zM86.43 93.737c9.193-.768 19.417-1.195 29.898-1.28h.602c10.911 0 21.049.426 29.812 1.195.086-2.648-.086-5.04-.344-7.261a396.035 396.035 0 00-29.468-1.11h-.688c-10.309 0-20.361.426-29.554 1.195-.258 2.136-.43 4.613-.258 7.261zM96.482 51.196a294.226 294.226 0 0120.19-.683h.258c7.302 0 14.004.256 19.76.683-.086-3.16 0-5.638.086-7.688-6.1-.428-12.801-.684-19.846-.684h-.258c-7.217 0-14.09.257-20.19.684.086 2.05.086 4.527 0 7.688zM88.148 103.989c8.85-.684 18.3-1.026 28.094-1.026 9.966 0 19.846.342 28.867.94.344-1.196.602-2.477.945-3.93l.516-3.075c-9.193-.683-19.331-1.025-29.555-1.025h-.687c-10.396 0-20.276.427-29.555 1.11.086.94.258 1.965.516 2.99.258 1.453.515 2.82.86 4.016zM88.578 123.722h-.43c-.343.427-.601.854-.945 1.196 11.255-.769 23.455-1.111 36.084-.94 7.904.086 15.465.427 22.596.854a5.43 5.43 0 01-.859-1.11h-.516a10.942 10.942 0 01-.945-1.709c-.687-1.366-1.031-2.648-1.117-4.1-16.238-.94-34.452-1.025-51.806 0-.086 1.452-.43 2.734-1.117 4.1a10.95 10.95 0 01-.945 1.709zM116.156 113.471h.774c8.849 0 17.612.257 25.774.769.258-1.965.859-4.186 1.46-6.834-8.591-.513-17.784-.854-27.234-.854h-.86c-9.45 0-18.557.341-27.149.939.688 2.649 1.203 4.87 1.46 6.835 8.249-.513 16.84-.855 25.775-.855zM96.224 40.774c6.014-.513 13.059-.769 20.534-.769h.257c7.561 0 14.348.342 20.018.769.172-1.88.516-3.332.86-4.784a12.75 12.75 0 011.031-2.904 279.868 279.868 0 00-21.995-.855h-.171c-8.42 0-15.98.428-22.424.94.43.854.773 1.709 1.031 2.82.344 1.366.601 2.904.86 4.783zM116.414 332.417c21.135 0 42.184-.854 58.164-2.562 0-1.965.086-3.93.086-5.468v-1.196c-31.445 3.503-84.97 3.503-116.5 0v1.196c.086 1.623.086 3.503.086 5.553 16.066 1.623 37.115 2.477 58.164 2.477zM56.274 233.58c0 .769 0 1.538.086 2.307 13.746.256 36.943.427 60.14.427 23.197 0 46.48-.171 60.14-.427 0-.769 0-1.538.086-2.307-27.149.598-93.303.598-120.452 0zM56.446 243.575c0 1.025 0 1.88.086 2.819 13.918.427 36.857.598 59.882.598s46.05-.171 59.968-.598c0-.854 0-1.794.086-2.819-27.406.854-92.53.854-120.022 0zM56.704 253.569c0 .427 0 1.538.085 3.247 14.09.598 36.858.854 59.625.854 22.853 0 45.621-.256 59.711-.854 0-1.709.086-2.905.086-3.247-27.751 1.111-91.671 1.111-119.507 0zM90.898 27.96a21.956 21.956 0 001.89 2.733c6.186-.683 14.433-1.196 23.97-1.196h.172c9.278 0 17.44.513 23.54 1.11.602-.853 1.203-1.622 1.804-2.647 1.461-2.82.086-4.186-1.202-5.211l-.086-.086c-6.53-.683-14.863-1.11-24.056-1.11h-.172c-9.709 0-18.214.598-24.658 1.196-1.288 1.025-2.663 2.392-1.202 5.21z" fill="#E6DBC0"/><path d="M66.756 361.377c3.522.684 11.598 1.538 25.087 2.221 13.488.684 17.011.769 24.657.684 7.646.085 11.083-.086 24.658-.684 13.488-.683 21.65-1.537 25.087-2.221 7.474-1.11 9.45-3.673 10.653-5.211.773-1.025 1.117-2.135 1.117-3.844-35.053 5.382-88.148 5.382-123.201 0 .085 1.709.515 2.734 1.288 3.844 1.117 1.538 3.179 4.101 10.654 5.211zM93.647 20.186c5.413-.598 13.489-1.196 23.283-1.196h.086c9.107 0 17.011.598 22.595 1.11a6.685 6.685 0 01-.343-1.964V11.9c-5.757-.598-13.489-1.11-22.252-1.11h-.172c-9.107 0-17.097.512-22.853 1.195v6.15c0 .513-.086 1.282-.344 2.05z" fill="#E6DBC0"/></g><defs><clipPath id="clip0"><path fill="#fff" transform="translate(0 .281)" d="M0 0h233v364H0z"/></clipPath></defs></svg>